<?xml version="1.0" encoding="utf-8"?>
<!-- Generator: Adobe Illustrator 17.0.0, SVG Export Plug-In . SVG Version: 6.00 Build 0)  -->
<!DOCTYPE svg PUBLIC "-//W3C//DTD SVG 1.1//EN" "http://www.w3.org/Graphics/SVG/1.1/DTD/svg11.dtd">
<svg version="1.1" id="Camada_1" xmlns="http://www.w3.org/2000/svg" xmlns:xlink="http://www.w3.org/1999/xlink" x="0px" y="0px"
	 width="120px" height="120px" viewBox="0 0 120 120" enable-background="new 0 0 120 120" xml:space="preserve">
<g>
	<g id="Shape_886">
		<g>
			
				<linearGradient id="SVGID_1_" gradientUnits="userSpaceOnUse" x1="-344.8668" y1="571.0129" x2="-344.8668" y2="690.9509" gradientTransform="matrix(1 0 0 1 405 -571.0129)">
				<stop  offset="0" style="stop-color:#50C9F5"/>
				<stop  offset="1" style="stop-color:#3C6FB6"/>
			</linearGradient>
			<path fill="url(#SVGID_1_)" d="M60.133,0C26.921,0,0,26.85,0,59.971c0,33.117,26.922,59.967,60.133,59.967
				s60.133-26.85,60.133-59.967C120.266,26.85,93.342,0,60.133,0z M14.031,61.967h-4.009c-1.107,0-2.004-0.896-2.004-1.996
				c0-1.104,0.898-2.001,2.004-2.001h4.009c1.107,0,2.004,0.896,2.004,2.001C16.036,61.071,15.137,61.967,14.031,61.967z
				 M58.128,9.992c0-1.1,0.898-1.996,2.004-1.996c1.107,0,2.004,0.896,2.004,1.996v4.001c0,1.104-0.898,2.001-2.004,2.001
				c-1.107,0-2.004-0.896-2.004-2.001V9.992z M62.137,109.941c0,1.104-0.898,2.001-2.004,2.001c-1.107,0-2.004-0.896-2.004-2.001
				v-4.001c0-1.104,0.898-1.996,2.004-1.996c1.107,0,2.004,0.892,2.004,1.996V109.941z M68.566,68.38L27.463,92.407l24.095-40.989
				l41.103-24.031L68.566,68.38z M110.244,61.967h-4.009c-1.107,0-2.004-0.896-2.004-1.996c0-1.104,0.898-2.001,2.004-2.001h4.009
				c1.107,0,2.004,0.896,2.004,2.001C112.249,61.071,111.351,61.967,110.244,61.967z M63.935,66.589L53.352,56.038L38.8,81.1
				L63.935,66.589z"/>
		</g>
	</g>
</g>
</svg>
