<?xml version="1.0" encoding="utf-8"?>
<!-- Generator: Adobe Illustrator 17.0.0, SVG Export Plug-In . SVG Version: 6.00 Build 0)  -->
<!DOCTYPE svg PUBLIC "-//W3C//DTD SVG 1.1//EN" "http://www.w3.org/Graphics/SVG/1.1/DTD/svg11.dtd">
<svg version="1.1" id="Capa_1" xmlns="http://www.w3.org/2000/svg" xmlns:xlink="http://www.w3.org/1999/xlink" x="0px" y="0px"
	 width="70px" height="133.577px" viewBox="11.633 -20.155 70 133.577" enable-background="new 11.633 -20.155 70 133.577"
	 xml:space="preserve">
<g>
	<linearGradient id="SVGID_1_" gradientUnits="userSpaceOnUse" x1="46.633" y1="113.4218" x2="46.633" y2="-20.1548">
		<stop  offset="0" style="stop-color:#4EBC2C"/>
		<stop  offset="1" style="stop-color:#92E878"/>
	</linearGradient>
	<path fill="url(#SVGID_1_)" d="M75.853-20.155H17.413c-3.191,0-5.78,2.588-5.78,5.779v122.02c0,3.191,2.589,5.777,5.78,5.777
		h58.439c3.192,0,5.78-2.588,5.78-5.777v-122.02C81.633-17.567,79.045-20.155,75.853-20.155z M41.698-13.09h9.874
		c0.334,0,0.602,0.269,0.602,0.602c0,0.331-0.269,0.602-0.602,0.602h-9.874c-0.334,0-0.602-0.271-0.602-0.602
		C41.095-12.821,41.363-13.09,41.698-13.09z M46.633,108.204c-2.082,0-3.772-1.691-3.772-3.772c0-2.084,1.69-3.774,3.772-3.774
		c2.084,0,3.772,1.69,3.772,3.774C50.407,106.513,48.717,108.204,46.633,108.204z M76.075,96.725H17.191V-3.458h58.882
		L76.075,96.725L76.075,96.725z"/>
</g>
</svg>
