<?xml version="1.0" encoding="utf-8"?>
<!-- Generator: Adobe Illustrator 17.0.0, SVG Export Plug-In . SVG Version: 6.00 Build 0)  -->
<!DOCTYPE svg PUBLIC "-//W3C//DTD SVG 1.1//EN" "http://www.w3.org/Graphics/SVG/1.1/DTD/svg11.dtd">
<svg version="1.1" id="Capa_1" xmlns="http://www.w3.org/2000/svg" xmlns:xlink="http://www.w3.org/1999/xlink" x="0px" y="0px"
	 width="470px" height="280px" viewBox="0 0 470 280" enable-background="new 0 0 470 280" xml:space="preserve">
<g>
	<path fill="#FFFFFF" d="M357.91,158.42l55.07,113.129c2.239,4.601-0.115,8.365-5.232,8.365H62.252
		c-5.117,0-7.472-3.764-5.232-8.365l55.071-113.129c0.876-1.799,3.231-3.272,5.232-3.272h47.22c1.455,0,3.421,0.911,4.373,2.012
		c3.204,3.702,6.467,7.319,9.721,10.899c3.09,3.398,6.197,6.841,9.279,10.364h-56.039c-2.002,0-4.356,1.472-5.232,3.272
		L90.163,256.64h289.671l-36.479-74.945c-0.875-1.8-3.23-3.272-5.232-3.272h-56.166c3.082-3.523,6.189-6.966,9.28-10.364
		c3.264-3.591,6.545-7.2,9.757-10.904c0.951-1.098,2.913-2.007,4.365-2.007h47.32C354.68,155.148,357.034,156.62,357.91,158.42z
		 M315.965,81.109c0,61.816-51.461,73.409-75.664,132.814c-1.966,4.827-8.763,4.803-10.73-0.023
		c-21.833-53.561-65.826-68.249-74.243-115.964c-8.287-46.974,24.236-92.987,71.723-97.476
		C275.346-4.106,315.965,33.758,315.965,81.109z M277.729,81.109c0-23.631-19.156-42.788-42.788-42.788
		s-42.788,19.157-42.788,42.788c0,23.632,19.156,42.788,42.788,42.788C258.573,123.896,277.729,104.74,277.729,81.109z"/>
</g>
</svg>
