<?xml version="1.0" encoding="utf-8"?>
<!-- Generator: Adobe Illustrator 17.0.0, SVG Export Plug-In . SVG Version: 6.00 Build 0)  -->
<!DOCTYPE svg PUBLIC "-//W3C//DTD SVG 1.1//EN" "http://www.w3.org/Graphics/SVG/1.1/DTD/svg11.dtd">
<svg version="1.1" id="Capa_1" xmlns="http://www.w3.org/2000/svg" xmlns:xlink="http://www.w3.org/1999/xlink" x="0px" y="0px"
	 width="470px" height="280px" viewBox="0 0 470 280" enable-background="new 0 0 470 280" xml:space="preserve">
<g>
	<g>
		<polygon fill="#FFFFFF" points="132.308,0.485 37.304,279.515 85.323,279.515 154.221,0.485 		"/>
		<polygon fill="#FFFFFF" points="337.692,0.485 315.779,0.485 384.677,279.515 432.696,279.515 		"/>
		<path fill="#FFFFFF" d="M172.962,0.485l-68.752,279.03h101.737l2.801-41.063h52.504l2.801,41.063H365.79L297.04,0.485
			L172.962,0.485L172.962,0.485z M225.953,3.684h18.095l2.867,39.129h-23.83L225.953,3.684z M220.219,81.94h29.563l2.867,39.128
			h-35.301L220.219,81.94z M211.617,199.322l2.867-39.126h41.034l2.869,39.126H211.617z"/>
	</g>
</g>
</svg>
