<?xml version="1.0" encoding="utf-8"?>
<!-- Generator: Adobe Illustrator 17.0.0, SVG Export Plug-In . SVG Version: 6.00 Build 0)  -->
<!DOCTYPE svg PUBLIC "-//W3C//DTD SVG 1.1//EN" "http://www.w3.org/Graphics/SVG/1.1/DTD/svg11.dtd">
<svg version="1.1" id="Capa_1" xmlns="http://www.w3.org/2000/svg" xmlns:xlink="http://www.w3.org/1999/xlink" x="0px" y="0px"
	 width="175px" height="175px" viewBox="87.375 87.375 175 175" enable-background="new 87.375 87.375 175 175"
	 xml:space="preserve">
<circle fill="#FFFFFF" cx="174.875" cy="174.875" r="87.5"/>
<g>
	<g>
		<path fill="#F2F2F2" d="M174.878,87.375c-48.254,0-87.503,39.249-87.503,87.5s39.249,87.499,87.506,87.499
			c48.245,0,87.494-39.248,87.494-87.499S223.126,87.375,174.878,87.375z M150.96,158.239l0.176-0.192
			c0.714-0.518,1.061-1.329,0.931-2.179c-1.762-10.603-0.605-15.024-0.215-16.135c3.08-9.452,12.747-13.824,14.644-14.599
			c0.404-0.159,1.151-0.385,1.908-0.502l0.226-0.053l1.553-0.083l0.012,0.096l0.36-0.035c0.32-0.035,0.626-0.077,1.011-0.158
			l0.343-0.073c0.303,0.005,4.066,0.48,9.658,2.195l3.885,1.337c7.106,2.098,10.374,6.003,10.981,6.79
			c5.691,6.447,4.164,16.181,2.755,21.407c-0.159,0.616-0.063,1.25,0.285,1.776l0.322,0.397c0.412,0.56,0.782,2.721-0.453,7.31
			c-0.235,1.394-0.751,2.527-1.514,3.29c-0.282,0.31-0.481,0.705-0.552,1.151c-1.923,11.275-12.024,23.888-22.674,23.888
			c-9.036,0-19.349-11.603-21.205-23.879c-0.071-0.458-0.261-0.863-0.578-1.209c-0.772-0.801-1.265-1.954-1.562-3.661
			C150.35,161.907,150.262,159.319,150.96,158.239z M130.675,207.134c0.392-0.496,2.576-3.056,6.994-4.741
			c3.885-1.193,13.488-4.384,18.736-8.187c0.246-0.133,0.488-0.391,0.689-0.595c0.485-0.523,1.227-1.322,2.106-2.137l0.49-0.465
			l0.499,0.469c4.624,4.36,9.74,6.748,14.408,6.748c4.904,0,9.959-2.121,14.631-6.141l0.366-0.313l0.991,0.481
			c0.886,0.811,2.419,1.926,3.131,2.265l0.913,0.445l-0.096,0.099l0.406,0.246c0.862,0.52,1.8,1.025,2.9,1.569
			c1.112,0.49,2.043,0.85,3.004,1.169c0.812,0.264,5.132,1.713,10.047,3.984l0.938,0.282c4.807,1.842,6.94,4.399,7.151,4.666
			c5.706,8.455,7.893,24.232,8.707,33.023c-14.903,12.099-33.645,18.76-52.803,18.76c-19.168,0-37.913-6.661-52.808-18.766
			C122.874,231.227,125.043,215.501,130.675,207.134z"/>
	</g>
</g>
</svg>
