<?xml version="1.0" encoding="utf-8"?>
<!-- Generator: Adobe Illustrator 17.0.0, SVG Export Plug-In . SVG Version: 6.00 Build 0)  -->
<!DOCTYPE svg PUBLIC "-//W3C//DTD SVG 1.1//EN" "http://www.w3.org/Graphics/SVG/1.1/DTD/svg11.dtd">
<svg version="1.1" id="Capa_1" xmlns="http://www.w3.org/2000/svg" xmlns:xlink="http://www.w3.org/1999/xlink" x="0px" y="0px"
	 width="470px" height="280px" viewBox="0 0 470 280" enable-background="new 0 0 470 280" xml:space="preserve">
<g>
	<g>
		<path fill="#FFFFFF" d="M156.413,172.306l19.334,9.391L164.7,204.333l-11.06,1.68l-1.68,8.862l-22.649,19.357l-10.496,19.887
			l7.722,8.309l-12.671-3.326l-4.454-11.06l12.706-51.386l-10.507-9.391l-4.937-19.875l5.938-9.725l-5.421,0.817l-7.711-9.92
			l-6.64-3.314l-15.468-5.536l-12.729-19.887l-7.722-14.363V86.106L44.216,64.562l-16.043-9.955l-9.943,5.524L0,68.992l11.589-9.391
			l-7.193-1.669l-2.728-9.391l8.275-6.64l-8.275-1.093l1.634-6.077H9.39l-5.524-8.298l14.915-8.862l27.08,14.938l9.978-9.391
			l21.533,12.706l41.443-4.454v21.015l-16.572,3.303l-3.326,8.873l16.031,17.113l3.867-0.552l2.739-21.544l10.542-0.541l4.385,12.13
			l5.536-3.303l12.153,27.103l-17.125,7.699l-13.258,7.204l-10.496,14.374v7.193l-3.878,0.541l-2.739-7.734l-14.927,2.198
			l-3.314,9.38l3.855,5.536l5.513-4.442l5.536,0.541l-2.762,7.883l6.617,0.472l2.221,8.275l4.465,1.485l3.291-5.374l22.108,2.21
			l14.892,11.06L156.413,172.306z M418.165,167.379l-1.197,9.368l-7.929-2.9l1.462-5.052l-8.701-0.725l-11.267,10.496l-11.957,4.339
			l2.9,16.25l-1.105,3.257l4.385,2.52l17.735-4.385l6.882,4.016l3.257-1.795l2.164,6.548l9.034,2.555l6.537-4.016l3.602-19.496
			l-9.817-9.794L418.165,167.379z M374.237,158.299l9.403,1.795l4.35-13.373l-2.555-2.198l-12.671,7.975L374.237,158.299z
			 M403.181,154.652l9.782,10.151l5.605,0.368l2.359-2.164l7.964,5.041l-3.257-6.882l-14.858-7.216L403.181,154.652z
			 M420.939,72.469h-2.543l-0.357,13.028l-6.514,13.776l-8.332,6.146l-0.357,5.432l15.203-9.046l0.725-9.426l5.041-4.684
			l-3.971-3.234l2.164-7.63L420.939,72.469z M460.08,203.92l1.082,10.116l-11.221,10.519l7.239,0.725l6.479-9.805l5.064-6.859
			l-3.257-0.357L460.08,203.92z M217.961,51.522v10.553l7.331-3.211l2.072-3.222l-7.929-15.26l-4.684,3.257l0.288,4.074
			l-4.408,5.317l-0.299,5.547h5.294L217.961,51.522z M284.205,175.757l-0.288,11.75l4.719,2.049l4.672-14.075l-1.197-5.892
			L284.205,175.757z M447.04,52.88l0.357,8.344l-9.414,11.601l-0.357-13.051l12.291-14.858l-7.573,1.116l-9.805,7.952l-11.969-0.714
			l-9.034,8.701l6.502,4.696l-7.584,21.003l-6.502,1.116l-4.005,5.789l1.795,7.607l-4.695,2.509l-1.462-6.871l-4.005-5.455
			l-5.432,5.766l4.339,12.303l-6.134,11.255l-13.419,0.714l-2.877,4.719l6.134,9.046l-6.502,5.444l-6.675-6.94l-0.242,6.537
			l5.823,6.537l2.543,11.578l7.262,2.578l9.805,3.982l-18.115-3.245l-7.619-7.239l-6.859-9.805l9.368,4.719l-4.339-7.929
			l-0.886-10.83l-4.143,1.047l-5.064-10.841l-14.144,9.794v6.203l-5.075,5.041l-6.479-16.296l-7.227-8.701l-17.401-3.257
			l-5.052-4.316l-2.555,1.439l3.602,8.701l5.777-2.9l7.619,5.789l-22.43,13.396l-11.624-22.81l-2.428,0.426l11.842,27.091
			l11.589-5.444l-3.602,12.694l-11.601,10.473l1.795,15.583l-6.514,5.052l-11.911,22.453l-11.969,2.175l-10.496-25.353l2.555-11.578
			l-6.525-20.313l-22.097,1.439l-12.337-11.946l2.187-19.553l11.957-14.489l23.167-3.982l1.462,6.134l9.426,6.146l3.602-5.052
			l14.386,3.683l3.717-2.244l1.646-5.409l-9.932-1.669l-3.211-5.547l-2.336-1.197l-2.049,7.032l-4.431-5.582l0.288-4.672
			l-5.915-4.684l-3.51-1.761l0.299,4.695l7.342,4.983l-3.821,4.419l-5.259-7.043l-3.809-4.419l-8.804,4.419l-6.157,9.679
			l-9.38-1.462l-0.587-11.727l12.003,0.84l-3.786-6.123l-2.359-5.018l9.092-2.946l4.983-6.721l4.109-0.311l-0.886-3.798l2.635-3.533
			l2.06,5.858l11.428,0.288l3.211-8.229l4.431,1.485l-1.485-5.559l6.813-2.175l-2.118-2.509l-6.169,1.726l-2.164-5.259l-0.265-0.035
			l0.184-0.368l-0.898-2.21l2.474-1.761l2.164-5.513l-2.29-0.345l-3.821,4.696l-3.211,7.009l3.556,3.798l-3.556,9.391l-5.282,2.06
			l-2.912-9.368l-6.169,3.522l-2.923-1.749l0.276-9.092l5.294-4.074l4.408-10.853l11.152-6.134l27.828,5.11
			c32.097-3.372,90.343-9.552,90.343-9.552l96.097,13.569L470,43.547l-13.062,7.262L447.04,52.88z M282.191,89.594l-15.237-7.918
			l-4.684,8.206l2.049,3.786l8.827-1.45l6.456,1.761L282.191,89.594z M298.28,99.536l-1.427-9.08l-2.958-4.396l3.556-1.473v-4.385
			l-9.103,4.983l3.199,8.217l-1.439,5.559L298.28,99.536z M166.978,28.31l-8.16-2.244L148.725,36.85l12.97,33.778l6.134,1.519
			l0.483-10.979l4.155-2.555l0.242-4.166l4.281-8.044l-2.992-6.065L166.978,28.31z"/>
	</g>
</g>
</svg>
