<?xml version="1.0" encoding="utf-8"?>
<!-- Generator: Adobe Illustrator 17.0.0, SVG Export Plug-In . SVG Version: 6.00 Build 0)  -->
<!DOCTYPE svg PUBLIC "-//W3C//DTD SVG 1.1//EN" "http://www.w3.org/Graphics/SVG/1.1/DTD/svg11.dtd">
<svg version="1.1" id="Camada_1" xmlns="http://www.w3.org/2000/svg" xmlns:xlink="http://www.w3.org/1999/xlink" x="0px" y="0px"
	 width="689px" height="300px" viewBox="0 0 689 300" enable-background="new 0 0 689 300" xml:space="preserve">
<circle fill="none" stroke="#FFFFFF" stroke-width="10" stroke-miterlimit="10" cx="152.5" cy="150.167" r="130.833"/>
<g>
	<path fill="#FFFFFF" d="M159.58,37.76c-0.232,0.008-0.59,0.075-1.072,0.199c-0.481,0.125-0.826,0.254-1.034,0.387
		c-0.299,0.208-0.501,0.606-0.604,1.197c-0.104,0.59-0.156,1.338-0.156,2.244v12.952h-1.084l-10.721-14.473v9.125
		c0,1.022,0.064,1.808,0.193,2.356c0.128,0.548,0.326,0.939,0.592,1.172c0.191,0.183,0.586,0.354,1.184,0.511
		c0.599,0.158,0.993,0.241,1.185,0.249v0.885h-7.255v-0.885c0.225-0.017,0.603-0.098,1.135-0.243s0.864-0.276,0.997-0.393
		c0.291-0.232,0.49-0.588,0.599-1.066c0.108-0.478,0.162-1.294,0.162-2.449v-8.714c0-0.382-0.067-0.765-0.2-1.147
		s-0.312-0.677-0.536-0.885c-0.299-0.274-0.704-0.509-1.215-0.704s-0.925-0.301-1.24-0.318v-0.885h5.054l9.943,13.486v-8.413
		c0-1.03-0.066-1.822-0.199-2.374c-0.133-0.553-0.324-0.92-0.573-1.103c-0.233-0.158-0.613-0.312-1.141-0.461
		s-0.929-0.232-1.203-0.249v-0.885h7.192v0.884H159.58z"/>
</g>
<g>
	<path fill="#FFFFFF" d="M53.342,140.572c0.781,0.814,1.392,1.797,1.833,2.948c0.44,1.151,0.66,2.425,0.66,3.821
		c0,1.405-0.225,2.68-0.673,3.827c-0.449,1.146-1.072,2.123-1.87,2.93c-0.772,0.798-1.671,1.413-2.692,1.845
		c-1.022,0.432-2.111,0.648-3.267,0.648c-1.229,0-2.366-0.23-3.409-0.692c-1.043-0.461-1.938-1.103-2.687-1.926
		c-0.748-0.806-1.336-1.784-1.764-2.936c-0.428-1.151-0.642-2.383-0.642-3.696c0-1.438,0.225-2.719,0.673-3.846
		c0.449-1.126,1.068-2.101,1.857-2.923c0.781-0.814,1.689-1.438,2.724-1.87c1.034-0.432,2.117-0.648,3.247-0.648
		c1.172,0,2.277,0.22,3.316,0.661C51.688,139.155,52.586,139.774,53.342,140.572z M51.485,153.112
		c0.466-0.756,0.804-1.612,1.016-2.567c0.212-0.956,0.318-2.024,0.318-3.204c0-1.213-0.118-2.327-0.355-3.341
		c-0.236-1.014-0.584-1.878-1.041-2.593c-0.457-0.707-1.03-1.257-1.72-1.652c-0.69-0.395-1.479-0.592-2.369-0.592
		c-0.997,0-1.845,0.229-2.543,0.686c-0.698,0.458-1.268,1.068-1.708,1.833c-0.416,0.731-0.725,1.588-0.929,2.568
		s-0.305,2.011-0.305,3.091c0,1.197,0.108,2.277,0.324,3.241s0.557,1.82,1.022,2.568c0.448,0.731,1.014,1.303,1.695,1.714
		s1.496,0.617,2.443,0.617c0.89,0,1.691-0.208,2.406-0.624C50.455,154.442,51.036,153.86,51.485,153.112z"/>
</g>
<g>
	<path fill="#FFFFFF" d="M261.605,150.906l-0.374,5.261h-13.825v-0.886c0.199-0.017,0.488-0.045,0.866-0.087
		c0.379-0.041,0.643-0.096,0.792-0.162c0.249-0.107,0.43-0.266,0.542-0.474s0.168-0.474,0.168-0.798v-12.665
		c0-0.283-0.047-0.532-0.143-0.748c-0.096-0.216-0.285-0.391-0.567-0.524c-0.191-0.1-0.459-0.197-0.804-0.293
		c-0.346-0.095-0.63-0.151-0.854-0.168v-0.885h7.467v0.885c-0.232,0.008-0.534,0.05-0.903,0.125c-0.37,0.075-0.638,0.142-0.804,0.2
		c-0.283,0.1-0.477,0.27-0.58,0.511c-0.104,0.241-0.156,0.499-0.156,0.773v11.88c0,0.549,0.027,0.975,0.081,1.278
		c0.055,0.303,0.181,0.538,0.381,0.704c0.19,0.149,0.476,0.247,0.854,0.293s0.908,0.068,1.59,0.068c0.307,0,0.627-0.008,0.96-0.024
		c0.332-0.017,0.647-0.051,0.947-0.101c0.291-0.05,0.559-0.118,0.804-0.205c0.245-0.088,0.426-0.197,0.542-0.331
		c0.341-0.382,0.738-0.961,1.191-1.738c0.452-0.777,0.767-1.407,0.94-1.889L261.605,150.906L261.605,150.906z"/>
</g>
<g>
	<path fill="#FFFFFF" d="M155.067,256.94c0.375,0.416,0.65,0.871,0.83,1.365c0.178,0.494,0.268,1.07,0.268,1.727
		c0,1.562-0.578,2.851-1.732,3.864c-1.156,1.014-2.59,1.521-4.301,1.521c-0.791,0-1.58-0.122-2.369-0.367s-1.471-0.542-2.044-0.892
		l-0.536,0.91h-0.998l-0.174-6.059h1.01c0.208,0.748,0.451,1.424,0.729,2.025c0.279,0.604,0.646,1.166,1.104,1.689
		c0.432,0.49,0.938,0.881,1.514,1.172c0.578,0.291,1.25,0.437,2.014,0.437c0.574,0,1.074-0.075,1.502-0.225s0.775-0.362,1.041-0.637
		s0.463-0.597,0.592-0.968c0.129-0.37,0.193-0.797,0.193-1.279c0-0.707-0.199-1.367-0.598-1.979s-0.992-1.075-1.783-1.392
		c-0.539-0.216-1.158-0.453-1.857-0.714c-0.697-0.261-1.301-0.507-1.807-0.739c-0.998-0.448-1.773-1.036-2.325-1.763
		c-0.553-0.728-0.829-1.677-0.829-2.848c0-0.674,0.137-1.301,0.412-1.882c0.274-0.582,0.665-1.102,1.172-1.559
		c0.48-0.432,1.051-0.771,1.707-1.016s1.342-0.367,2.057-0.367c0.814,0,1.545,0.124,2.188,0.374c0.645,0.249,1.232,0.54,1.764,0.872
		l0.512-0.848h0.998l0.1,5.872h-1.01c-0.184-0.674-0.389-1.317-0.617-1.933s-0.525-1.172-0.891-1.67
		c-0.357-0.482-0.795-0.867-1.311-1.153c-0.516-0.287-1.146-0.431-1.895-0.431c-0.789,0-1.463,0.254-2.02,0.761
		s-0.834,1.126-0.834,1.857c0,0.765,0.178,1.398,0.535,1.901s0.877,0.916,1.559,1.24c0.605,0.291,1.203,0.542,1.789,0.754
		s1.152,0.438,1.701,0.68c0.498,0.216,0.979,0.461,1.439,0.735S154.728,256.575,155.067,256.94z"/>
</g>
<path fill="#FFFFFF" d="M163.019,137.79l-5.092,5.092c1.697,1.889,2.739,4.379,2.739,7.118c0,5.89-4.775,10.666-10.666,10.666
	c-2.739,0-5.229-1.042-7.118-2.739l-5.325,5.325l93.321,67.86L163.019,137.79z"/>
<path fill="#35A1FC" d="M139.335,150c0-5.891,4.775-10.666,10.666-10.666c2.739,0,5.229,1.041,7.118,2.739l5.324-5.324
	l-93.321-67.86l67.86,93.321l5.092-5.092C140.376,155.229,139.335,152.739,139.335,150z"/>
<path fill="none" stroke="#FFFFFF" stroke-width="5" stroke-miterlimit="10" d="M197.495,213.529
	c-13.127,9.752-29.386,15.527-46.995,15.527c-43.569,0-78.889-35.32-78.889-78.889c0-17.61,5.774-33.868,15.527-46.995"/>
<path fill="none" stroke="#FFFFFF" stroke-width="5" stroke-miterlimit="10" d="M103.651,86.658
	c13.127-9.752,29.386-15.527,46.995-15.527c43.569,0,78.889,35.32,78.889,78.889c0,17.61-5.774,33.868-15.527,46.995"/>
<g enable-background="new    ">
	<path fill="#FFFFFF" d="M372.812,98.585c0,4.912-0.923,9.173-2.769,12.782s-4.247,6.568-7.205,8.874
		c-2.985,2.308-6.337,4.03-10.055,5.17c-3.719,1.14-7.559,1.71-11.52,1.71h-23.937v-2.891c0.786,0,1.812-0.074,3.073-0.224
		c1.262-0.148,2.097-0.318,2.504-0.509c0.814-0.353,1.404-0.875,1.771-1.567c0.366-0.691,0.55-1.526,0.55-2.503V77.742
		c0-0.922-0.156-1.75-0.469-2.482c-0.312-0.733-0.93-1.316-1.852-1.751c-0.842-0.407-1.751-0.705-2.728-0.896
		c-0.978-0.189-1.819-0.312-2.524-0.366v-2.891h25.239c3.474,0,6.893,0.536,10.259,1.608c3.364,1.072,6.295,2.518,8.793,4.335
		c3.392,2.416,6.051,5.577,7.979,9.485C371.848,88.693,372.812,93.293,372.812,98.585z M362.838,98.564
		c0-3.877-0.516-7.383-1.547-10.515s-2.537-5.863-4.518-8.196c-1.873-2.224-4.174-3.972-6.9-5.247
		c-2.728-1.274-5.76-1.911-9.099-1.911c-1.112,0-2.368,0.02-3.765,0.061c-1.398,0.041-2.437,0.075-3.115,0.102v44.377
		c0,2.468,0.719,4.176,2.158,5.125c1.438,0.949,3.649,1.424,6.635,1.424c3.447,0,6.459-0.61,9.037-1.83s4.668-2.915,6.27-5.085
		c1.682-2.277,2.91-4.914,3.684-7.911C362.451,105.961,362.838,102.497,362.838,98.564z"/>
	<path fill="#FFFFFF" d="M398.336,127.121h-19.377v-2.687c0.623-0.055,1.268-0.108,1.934-0.163c0.664-0.054,1.241-0.162,1.73-0.325
		c0.759-0.243,1.322-0.67,1.688-1.28c0.366-0.609,0.55-1.403,0.55-2.379V95.525c0-0.867-0.197-1.66-0.59-2.379
		c-0.395-0.718-0.943-1.321-1.648-1.809c-0.517-0.325-1.263-0.604-2.24-0.833c-0.977-0.23-1.872-0.373-2.686-0.428v-2.687
		l14.166-0.896l0.57,0.569v32.729c0,0.95,0.182,1.737,0.545,2.36c0.363,0.625,0.937,1.086,1.719,1.385
		c0.592,0.244,1.172,0.441,1.738,0.59c0.565,0.149,1.199,0.251,1.9,0.306v2.689H398.336z M393.247,70.659
		c0,1.547-0.509,2.897-1.526,4.051s-2.273,1.73-3.766,1.73c-1.385,0-2.585-0.55-3.603-1.649s-1.526-2.354-1.526-3.766
		c0-1.492,0.509-2.794,1.526-3.907c1.018-1.112,2.218-1.669,3.603-1.669c1.547,0,2.814,0.522,3.807,1.567
		C392.752,68.062,393.247,69.275,393.247,70.659z"/>
	<path fill="#FFFFFF" d="M441.322,126.389c-1.275,0.462-2.395,0.834-3.357,1.119c-0.965,0.285-2.057,0.428-3.277,0.428
		c-2.117,0-3.807-0.496-5.068-1.486s-2.07-2.436-2.422-4.335h-0.244c-1.765,1.954-3.658,3.446-5.68,4.478s-4.457,1.547-7.307,1.547
		c-3.012,0-5.488-0.923-7.43-2.768c-1.939-1.846-2.91-4.261-2.91-7.246c0-1.547,0.217-2.932,0.651-4.152
		c0.435-1.222,1.085-2.32,1.954-3.298c0.678-0.813,1.574-1.539,2.688-2.178c1.111-0.637,2.156-1.146,3.134-1.526
		c1.222-0.461,3.697-1.316,7.429-2.564s6.249-2.225,7.552-2.931v-4.03c0-0.353-0.075-1.031-0.224-2.035
		c-0.15-1.004-0.469-1.954-0.957-2.85c-0.543-1.004-1.31-1.879-2.3-2.626c-0.991-0.746-2.396-1.119-4.214-1.119
		c-1.248,0-2.408,0.21-3.48,0.631s-1.825,0.861-2.259,1.323c0,0.543,0.128,1.343,0.387,2.401c0.258,1.059,0.387,2.035,0.387,2.931
		c0,0.95-0.427,1.818-1.282,2.605s-2.043,1.181-3.562,1.181c-1.357,0-2.354-0.481-2.992-1.445c-0.637-0.963-0.956-2.042-0.956-3.236
		c0-1.248,0.44-2.442,1.323-3.582c0.881-1.14,2.028-2.157,3.439-3.053c1.222-0.76,2.7-1.405,4.438-1.934
		c1.736-0.529,3.433-0.794,5.088-0.794c2.28,0,4.268,0.156,5.965,0.468c1.695,0.312,3.235,0.984,4.619,2.015
		c1.385,1.005,2.436,2.368,3.155,4.092s1.079,3.942,1.079,6.655c0,3.882-0.041,7.321-0.123,10.319
		c-0.08,2.999-0.121,6.276-0.121,9.831c0,1.059,0.183,1.9,0.549,2.524c0.367,0.624,0.93,1.153,1.689,1.587
		c0.407,0.244,1.052,0.381,1.934,0.407c0.882,0.027,1.784,0.041,2.707,0.041v2.605H441.322z M427.115,104.895
		c-2.307,0.68-4.328,1.347-6.064,1.999c-1.738,0.653-3.353,1.469-4.845,2.448c-1.357,0.925-2.429,2.02-3.216,3.284
		s-1.181,2.768-1.181,4.508c0,2.257,0.591,3.916,1.771,4.978c1.181,1.061,2.68,1.59,4.498,1.59c1.927,0,3.623-0.469,5.089-1.407
		s2.7-2.046,3.704-3.324L427.115,104.895z M430.372,67.688c0,1.032-0.237,1.873-0.712,2.524c-0.476,0.651-1.174,1.343-2.097,2.076
		c-1.357,1.086-3.128,2.47-5.312,4.152s-4.539,3.515-7.063,5.495l-1.547-1.303c2.443-3.609,4.146-6.153,5.109-7.633
		c0.963-1.479,2.001-3.114,3.114-4.905c0.841-1.384,1.655-2.326,2.442-2.829c0.787-0.502,1.695-0.753,2.728-0.753
		c0.978,0,1.777,0.333,2.401,0.997C430.061,66.175,430.372,66.901,430.372,67.688z"/>
	<path fill="#FFFFFF" d="M476.047,92.153c0,1.384-0.34,2.612-1.018,3.684c-0.68,1.072-1.725,1.608-3.135,1.608
		c-1.52,0-2.68-0.394-3.48-1.181s-1.201-1.655-1.201-2.605c0-0.597,0.047-1.14,0.143-1.628s0.184-0.978,0.266-1.466
		c-1.277,0-2.77,0.516-4.479,1.547c-1.71,1.032-3.162,2.497-4.355,4.396v23.366c0,0.95,0.183,1.724,0.549,2.32
		c0.367,0.598,0.943,1.045,1.73,1.344c0.678,0.271,1.553,0.475,2.625,0.61s2.002,0.23,2.789,0.285v2.687h-21.168v-2.687
		c0.623-0.055,1.268-0.108,1.934-0.163c0.664-0.054,1.241-0.162,1.73-0.325c0.759-0.243,1.322-0.67,1.689-1.28
		c0.365-0.609,0.549-1.403,0.549-2.379V95.525c0-0.84-0.197-1.667-0.59-2.479c-0.395-0.813-0.943-1.464-1.648-1.952
		c-0.517-0.325-1.127-0.562-1.832-0.711c-0.707-0.149-1.466-0.251-2.279-0.306V87.39l13.352-0.896l0.57,0.569v5.658h0.203
		c1.682-2.198,3.555-3.867,5.617-5.007s3.949-1.71,5.658-1.71c1.711,0,3.102,0.557,4.174,1.67
		C475.51,88.788,476.047,90.28,476.047,92.153z"/>
	<path fill="#FFFFFF" d="M498.924,127.121h-19.377v-2.687c0.625-0.055,1.268-0.108,1.934-0.163c0.664-0.054,1.242-0.162,1.73-0.325
		c0.76-0.243,1.322-0.67,1.689-1.28c0.365-0.609,0.549-1.403,0.549-2.379V95.525c0-0.867-0.197-1.66-0.59-2.379
		c-0.395-0.718-0.943-1.321-1.648-1.809c-0.516-0.325-1.262-0.604-2.238-0.833c-0.979-0.23-1.873-0.373-2.688-0.428v-2.687
		l14.166-0.896l0.57,0.569v32.729c0,0.95,0.182,1.737,0.545,2.36c0.365,0.625,0.938,1.086,1.719,1.385
		c0.592,0.244,1.172,0.441,1.738,0.59c0.566,0.149,1.199,0.251,1.9,0.306v2.689H498.924z M493.836,70.659
		c0,1.547-0.51,2.897-1.527,4.051s-2.273,1.73-3.766,1.73c-1.383,0-2.584-0.55-3.602-1.649c-1.018-1.099-1.527-2.354-1.527-3.766
		c0-1.492,0.51-2.794,1.527-3.907c1.018-1.112,2.219-1.669,3.602-1.669c1.547,0,2.816,0.522,3.807,1.567
		S493.836,69.275,493.836,70.659z"/>
	<path fill="#FFFFFF" d="M543.051,106.646c0,2.822-0.447,5.597-1.344,8.324s-2.174,5.042-3.83,6.94
		c-1.875,2.172-4.049,3.786-6.521,4.845s-5.242,1.588-8.312,1.588c-2.555,0-4.986-0.482-7.295-1.445s-4.359-2.367-6.152-4.214
		c-1.766-1.817-3.172-4.036-4.219-6.655c-1.045-2.619-1.568-5.557-1.568-8.813c0-6.269,1.828-11.398,5.48-15.388
		c3.654-3.989,8.443-5.983,14.365-5.983c5.623,0,10.262,1.893,13.916,5.679C541.225,95.308,543.051,100.35,543.051,106.646z
		 M534.625,106.727c0-2.035-0.205-4.186-0.611-6.452c-0.408-2.266-1.02-4.186-1.836-5.76c-0.869-1.683-2.012-3.033-3.426-4.051
		s-3.141-1.526-5.18-1.526c-2.094,0-3.881,0.516-5.361,1.547c-1.482,1.031-2.686,2.442-3.609,4.233
		c-0.871,1.655-1.482,3.542-1.836,5.658c-0.354,2.117-0.529,4.166-0.529,6.147c0,2.604,0.209,5.014,0.631,7.226
		s1.094,4.187,2.02,5.923c0.924,1.736,2.086,3.101,3.486,4.091c1.4,0.991,3.133,1.486,5.199,1.486c3.398,0,6.09-1.643,8.074-4.926
		C533.633,117.04,534.625,112.507,534.625,106.727z"/>
	<path fill="#FFFFFF" d="M612.906,126.389l-14.043,0.896l-0.613-0.57v-3.745l-0.324-0.081c-1.41,1.574-3.15,2.863-5.225,3.867
		c-2.072,1.004-4.207,1.506-6.402,1.506c-2.275,0-4.479-0.509-6.605-1.526s-3.977-2.449-5.549-4.295
		c-1.6-1.872-2.865-4.125-3.801-6.757c-0.936-2.633-1.402-5.537-1.402-8.712c0-2.903,0.502-5.658,1.504-8.264
		s2.385-4.885,4.146-6.839c1.652-1.817,3.678-3.27,6.076-4.355c2.398-1.085,4.846-1.629,7.338-1.629c1.871,0,3.707,0.238,5.51,0.713
		c1.801,0.475,3.352,1.079,4.654,1.812V74.42c0-1.142-0.191-2.182-0.57-3.12c-0.381-0.938-0.91-1.651-1.588-2.142
		c-0.76-0.517-1.785-0.89-3.074-1.121s-2.68-0.401-4.172-0.51v-2.524l16.445-0.896l0.611,0.61v54.104
		c0,0.949,0.184,1.757,0.549,2.421c0.367,0.664,0.902,1.228,1.609,1.688c0.514,0.326,1.262,0.528,2.238,0.61
		c0.977,0.081,1.873,0.136,2.688,0.162L612.906,126.389L612.906,126.389z M598.17,119.346V95.857
		c-0.217-0.705-0.57-1.465-1.057-2.279c-0.488-0.814-1.098-1.561-1.828-2.239c-0.785-0.678-1.707-1.241-2.764-1.689
		c-1.057-0.447-2.289-0.672-3.697-0.672c-1.625,0-3.121,0.422-4.488,1.263c-1.369,0.841-2.58,2.049-3.637,3.623
		c-1.002,1.52-1.795,3.453-2.377,5.801s-0.873,4.945-0.873,7.795c0,2.28,0.217,4.35,0.65,6.208c0.434,1.859,1.164,3.59,2.193,5.19
		c0.947,1.521,2.16,2.741,3.637,3.664c1.475,0.923,3.23,1.384,5.262,1.384c2.166,0,3.961-0.475,5.383-1.425
		C595.996,121.531,597.193,120.485,598.17,119.346z"/>
	<path fill="#FFFFFF" d="M652.473,117.677c-1.682,3.203-3.936,5.754-6.758,7.653s-6.064,2.85-9.729,2.85
		c-3.23,0-6.059-0.57-8.486-1.71c-2.43-1.14-4.432-2.687-6.006-4.641s-2.748-4.233-3.521-6.839s-1.16-5.359-1.16-8.264
		c0-2.605,0.414-5.163,1.242-7.674c0.828-2.51,2.041-4.769,3.643-6.777c1.547-1.927,3.467-3.48,5.762-4.661
		c2.293-1.181,4.863-1.771,7.713-1.771c2.932,0,5.441,0.462,7.531,1.384c2.09,0.923,3.785,2.185,5.088,3.786
		c1.248,1.52,2.178,3.311,2.789,5.373s0.916,4.302,0.916,6.717v2.687h-26.582c0,2.639,0.25,5.032,0.754,7.182
		c0.502,2.148,1.295,4.039,2.381,5.671c1.059,1.577,2.441,2.822,4.152,3.732c1.709,0.912,3.744,1.367,6.105,1.367
		c2.416,0,4.498-0.566,6.248-1.698c1.752-1.132,3.441-3.171,5.068-6.117L652.473,117.677z M643.477,102.371
		c0-1.516-0.129-3.139-0.387-4.87s-0.672-3.179-1.242-4.343c-0.623-1.244-1.479-2.259-2.564-3.044
		c-1.086-0.784-2.482-1.177-4.191-1.177c-2.85,0-5.219,1.184-7.104,3.551c-1.887,2.367-2.912,5.662-3.074,9.883H643.477z"/>
</g>
<g enable-background="new    ">
	<path fill="#FFFFFF" d="M383.26,193.609c2.611,1.77,4.781,4.087,6.509,6.951c1.727,2.865,2.591,6.34,2.591,10.426
		c0,4.171-0.906,7.794-2.717,10.868c-1.812,3.076-4.171,5.604-7.078,7.583c-2.822,1.938-6.014,3.412-9.572,4.423
		c-3.561,1.011-7.235,1.517-11.026,1.517h-42.462v-4.486c1.01-0.084,2.484-0.263,4.423-0.537c1.937-0.273,3.327-0.601,4.171-0.979
		c1.305-0.59,2.231-1.379,2.779-2.369c0.547-0.989,0.822-2.265,0.822-3.823v-64.452c0-1.432-0.244-2.695-0.727-3.791
		c-0.485-1.095-1.444-1.979-2.875-2.654c-1.265-0.632-2.676-1.115-4.234-1.453c-1.559-0.337-2.865-0.547-3.918-0.632v-4.486h41.389
		c3.201,0,6.266,0.316,9.193,0.948s5.719,1.748,8.373,3.349c2.484,1.476,4.527,3.476,6.129,6.003
		c1.601,2.527,2.401,5.603,2.401,9.226c0,3.159-0.569,5.971-1.706,8.436c-1.138,2.464-2.738,4.581-4.803,6.351
		c-1.938,1.686-4.16,3.106-6.666,4.265c-2.507,1.159-5.213,2.054-8.119,2.686v0.569c2.568,0.295,5.443,0.938,8.625,1.927
		C377.941,190.461,380.773,191.841,383.26,193.609z M367.979,180.077c1.555-1.814,2.637-3.798,3.246-5.95s0.914-4.705,0.914-7.659
		c0-4.938-1.346-8.811-4.035-11.616s-6.934-4.21-12.732-4.21c-1.346,0-3.037,0.031-5.075,0.095
		c-2.039,0.063-3.752,0.116-5.138,0.158v34.501h8.006c3.445,0,6.398-0.442,8.857-1.329
		C364.479,183.18,366.465,181.851,367.979,180.077z M376.752,208.712c0-5.309-1.78-9.668-5.34-13.08
		c-3.561-3.412-8.646-5.118-15.26-5.118c-2.696,0-4.971,0.031-6.824,0.095c-1.854,0.062-3.244,0.116-4.17,0.158v31.594
		c0,2.653,1.074,4.655,3.223,6.003c2.148,1.349,5.139,2.021,8.973,2.021c6.275,0,11.078-1.832,14.406-5.497
		C375.087,221.223,376.752,215.831,376.752,208.712z"/>
	<path fill="#FFFFFF" d="M463.445,203.594c0,4.381-0.695,8.688-2.086,12.922c-1.393,4.233-3.375,7.825-5.946,10.773
		c-2.911,3.37-6.284,5.876-10.121,7.52c-3.837,1.643-8.14,2.464-12.904,2.464c-3.964,0-7.738-0.748-11.322-2.243
		s-6.769-3.675-9.552-6.54c-2.74-2.821-4.924-6.266-6.547-10.331c-1.623-4.064-2.434-8.625-2.434-13.681
		c0-9.73,2.835-17.692,8.507-23.885c5.671-6.192,13.104-9.288,22.297-9.288c8.729,0,15.929,2.938,21.601,8.814
		C460.609,185.995,463.445,193.821,463.445,203.594z M450.365,203.72c0-3.159-0.316-6.497-0.949-10.016
		c-0.633-3.517-1.582-6.497-2.848-8.94c-1.352-2.612-3.125-4.708-5.318-6.287c-2.195-1.58-4.875-2.37-8.039-2.37
		c-3.251,0-6.025,0.801-8.324,2.401c-2.301,1.602-4.168,3.791-5.603,6.571c-1.351,2.57-2.3,5.497-2.849,8.783
		c-0.55,3.286-0.823,6.467-0.823,9.541c0,4.045,0.327,7.783,0.981,11.217s1.698,6.498,3.134,9.193
		c1.435,2.696,3.238,4.813,5.413,6.351c2.172,1.538,4.863,2.307,8.07,2.307c5.274,0,9.453-2.549,12.533-7.646
		C448.824,219.729,450.365,212.692,450.365,203.72z"/>
	<path fill="#FFFFFF" d="M520.125,181.099c0,2.148-0.527,4.055-1.58,5.719s-2.676,2.495-4.865,2.495
		c-2.359,0-4.16-0.609-5.402-1.832c-1.242-1.222-1.863-2.569-1.863-4.044c0-0.927,0.072-1.77,0.221-2.527
		c0.146-0.759,0.283-1.517,0.41-2.275c-1.98,0-4.297,0.801-6.951,2.401c-2.652,1.602-4.906,3.876-6.76,6.824v36.271
		c0,1.475,0.283,2.675,0.852,3.602c0.57,0.927,1.465,1.622,2.686,2.085c1.053,0.422,2.412,0.737,4.076,0.948
		s3.105,0.358,4.328,0.441v4.171H472.42v-4.171c0.969-0.083,1.969-0.167,3.002-0.252c1.031-0.084,1.928-0.252,2.686-0.505
		c1.178-0.378,2.053-1.041,2.621-1.987c0.57-0.947,0.854-2.178,0.854-3.692v-38.437c0-1.304-0.307-2.588-0.916-3.85
		c-0.611-1.262-1.465-2.271-2.559-3.03c-0.801-0.504-1.748-0.872-2.844-1.104c-1.096-0.23-2.275-0.389-3.539-0.474v-4.171
		l20.727-1.39l0.885,0.885v8.783h0.314c2.613-3.412,5.52-6.003,8.721-7.772s6.129-2.654,8.783-2.654s4.812,0.864,6.477,2.591
		C519.293,175.876,520.125,178.191,520.125,181.099z"/>
	<path fill="#FFFFFF" d="M593.676,234.239l-21.797,1.391l-0.951-0.885v-5.813l-0.504-0.126c-2.188,2.443-4.891,4.444-8.109,6.003
		c-3.219,1.558-6.531,2.338-9.938,2.338c-3.533,0-6.951-0.79-10.254-2.37c-3.303-1.579-6.174-3.801-8.613-6.666
		c-2.482-2.906-4.449-6.402-5.9-10.489c-1.451-4.086-2.176-8.594-2.176-13.522c0-4.507,0.777-8.783,2.334-12.827
		c1.555-4.044,3.701-7.582,6.438-10.615c2.564-2.822,5.709-5.076,9.432-6.762c3.723-1.684,7.52-2.527,11.391-2.527
		c2.902,0,5.752,0.369,8.549,1.106s5.205,1.674,7.227,2.812v-21.716c0-1.772-0.297-3.387-0.885-4.843
		c-0.592-1.456-1.412-2.564-2.465-3.324c-1.18-0.802-2.771-1.382-4.771-1.741s-4.16-0.623-6.477-0.792v-3.917l25.527-1.391
		l0.949,0.947v83.982c0,1.475,0.283,2.728,0.854,3.758c0.568,1.032,1.398,1.905,2.494,2.62c0.801,0.506,1.959,0.821,3.477,0.947
		c1.516,0.126,2.906,0.211,4.17,0.253v4.169H593.676z M570.803,223.308v-36.459c-0.338-1.095-0.885-2.274-1.641-3.539
		c-0.756-1.264-1.703-2.422-2.838-3.475c-1.219-1.053-2.648-1.928-4.289-2.623c-1.639-0.694-3.553-1.042-5.738-1.042
		c-2.523,0-4.846,0.653-6.969,1.959s-4.004,3.181-5.645,5.623c-1.555,2.36-2.785,5.361-3.689,9.005s-1.355,7.677-1.355,12.101
		c0,3.538,0.336,6.751,1.01,9.636c0.672,2.886,1.807,5.571,3.404,8.057c1.473,2.359,3.354,4.255,5.645,5.687
		c2.291,1.433,5.014,2.148,8.168,2.148c3.363,0,6.148-0.736,8.355-2.211S569.289,225.077,570.803,223.308z"/>
	<path fill="#FFFFFF" d="M660.529,203.594c0,4.381-0.695,8.688-2.088,12.922c-1.391,4.233-3.373,7.825-5.945,10.773
		c-2.91,3.37-6.283,5.876-10.121,7.52c-3.838,1.643-8.139,2.464-12.904,2.464c-3.963,0-7.738-0.748-11.322-2.243
		s-6.768-3.675-9.551-6.54c-2.74-2.821-4.924-6.266-6.547-10.331c-1.623-4.064-2.436-8.625-2.436-13.681
		c0-9.73,2.836-17.692,8.508-23.885s13.104-9.288,22.297-9.288c8.729,0,15.93,2.938,21.602,8.814
		C657.693,185.995,660.529,193.821,660.529,203.594z M647.449,203.72c0-3.159-0.316-6.497-0.949-10.016
		c-0.633-3.517-1.584-6.497-2.85-8.94c-1.35-2.612-3.123-4.708-5.316-6.287c-2.195-1.58-4.875-2.37-8.041-2.37
		c-3.25,0-6.023,0.801-8.322,2.401c-2.301,1.602-4.168,3.791-5.604,6.571c-1.35,2.57-2.301,5.497-2.85,8.783
		s-0.822,6.467-0.822,9.541c0,4.045,0.328,7.783,0.982,11.217c0.652,3.434,1.697,6.498,3.133,9.193
		c1.436,2.696,3.238,4.813,5.412,6.351s4.865,2.307,8.07,2.307c5.275,0,9.455-2.549,12.535-7.646
		C645.908,219.729,647.449,212.692,647.449,203.72z"/>
</g>
</svg>
