<?xml version="1.0" encoding="utf-8"?>
<!-- Generator: Adobe Illustrator 17.0.0, SVG Export Plug-In . SVG Version: 6.00 Build 0)  -->
<!DOCTYPE svg PUBLIC "-//W3C//DTD SVG 1.1//EN" "http://www.w3.org/Graphics/SVG/1.1/DTD/svg11.dtd">
<svg version="1.1" id="Capa_1" xmlns="http://www.w3.org/2000/svg" xmlns:xlink="http://www.w3.org/1999/xlink" x="0px" y="0px"
	 width="649.5px" height="269.987px" viewBox="0 0 649.5 269.987" enable-background="new 0 0 649.5 269.987" xml:space="preserve">
<g>
	<g id="Shape_886">
		<g>
			
				<linearGradient id="SVGID_1_" gradientUnits="userSpaceOnUse" x1="-272.233" y1="592.038" x2="-272.233" y2="819.976" gradientTransform="matrix(1 0 0 1 405 -571.0129)">
				<stop  offset="0" style="stop-color:#3FCCFF"/>
				<stop  offset="1" style="stop-color:#0071E9"/>
			</linearGradient>
			<path fill="url(#SVGID_1_)" d="M132.767,21.025c-63.118,0-114.281,51.027-114.281,113.973
				c0,62.938,51.164,113.965,114.281,113.965s114.281-51.027,114.281-113.965C247.048,72.052,195.88,21.025,132.767,21.025z
				 M45.151,138.792h-7.619c-2.103,0-3.809-1.703-3.809-3.794c0-2.099,1.707-3.802,3.809-3.802h7.619
				c2.103,0,3.809,1.703,3.809,3.802C48.961,137.089,47.254,138.792,45.151,138.792z M128.957,40.015
				c0-2.091,1.707-3.794,3.809-3.794c2.103,0,3.809,1.703,3.809,3.794v7.603c0,2.099-1.706,3.802-3.809,3.802
				c-2.103,0-3.809-1.703-3.809-3.802V40.015z M136.576,229.965c0,2.099-1.706,3.802-3.809,3.802c-2.103,0-3.809-1.703-3.809-3.802
				v-7.603c0-2.099,1.707-3.794,3.809-3.794c2.103,0,3.809,1.695,3.809,3.794V229.965z M148.793,150.978l-78.115,45.663
				l45.792-77.898l78.115-45.671L148.793,150.978z M228.001,138.792h-7.619c-2.103,0-3.809-1.703-3.809-3.794
				c0-2.099,1.706-3.802,3.809-3.802h7.619c2.103,0,3.809,1.703,3.809,3.802C231.811,137.089,230.104,138.792,228.001,138.792z
				 M139.993,147.576l-20.113-20.052l-27.656,47.628L139.993,147.576z"/>
		</g>
	</g>
</g>
<g enable-background="new    ">
	<path d="M338.812,85.457c0,4.912-0.923,9.173-2.769,12.782s-4.247,6.568-7.205,8.874c-2.985,2.308-6.337,4.03-10.055,5.17
		c-3.718,1.14-7.558,1.71-11.52,1.71h-23.936v-2.891c0.787,0,1.812-0.074,3.073-0.224c1.262-0.148,2.097-0.318,2.503-0.509
		c0.814-0.353,1.405-0.875,1.771-1.567c0.366-0.691,0.549-1.526,0.549-2.503V64.615c0-0.922-0.156-1.75-0.468-2.482
		c-0.312-0.733-0.93-1.316-1.853-1.751c-0.841-0.407-1.75-0.705-2.727-0.896c-0.977-0.189-1.819-0.312-2.524-0.366v-2.891h25.239
		c3.473,0,6.893,0.536,10.258,1.608c3.365,1.072,6.295,2.518,8.793,4.335c3.392,2.416,6.051,5.577,7.979,9.485
		C337.848,75.566,338.812,80.165,338.812,85.457z M328.838,85.437c0-3.877-0.516-7.383-1.547-10.515s-2.538-5.863-4.518-8.196
		c-1.873-2.224-4.173-3.972-6.9-5.247c-2.728-1.274-5.76-1.911-9.099-1.911c-1.113,0-2.368,0.02-3.765,0.061
		c-1.398,0.041-2.436,0.075-3.114,0.102v44.377c0,2.468,0.719,4.176,2.158,5.125c1.438,0.949,3.649,1.424,6.635,1.424
		c3.446,0,6.458-0.61,9.037-1.83c2.578-1.22,4.667-2.915,6.269-5.085c1.682-2.277,2.91-4.914,3.684-7.911
		C328.451,92.833,328.838,89.37,328.838,85.437z"/>
	<path d="M364.336,113.994h-19.377v-2.687c0.623-0.055,1.268-0.108,1.934-0.163c0.664-0.054,1.241-0.162,1.73-0.325
		c0.759-0.243,1.322-0.67,1.688-1.28c0.366-0.609,0.55-1.403,0.55-2.379V82.398c0-0.867-0.197-1.66-0.59-2.379
		c-0.395-0.718-0.943-1.321-1.648-1.809c-0.517-0.325-1.263-0.604-2.24-0.833c-0.977-0.23-1.872-0.373-2.686-0.428v-2.687
		l14.166-0.896l0.57,0.569v32.729c0,0.95,0.182,1.737,0.545,2.36c0.363,0.625,0.937,1.086,1.719,1.385
		c0.592,0.244,1.172,0.441,1.738,0.59c0.565,0.149,1.199,0.251,1.9,0.306V113.994z M359.247,57.532c0,1.547-0.509,2.897-1.526,4.051
		s-2.273,1.73-3.766,1.73c-1.385,0-2.585-0.55-3.603-1.649c-1.018-1.099-1.526-2.354-1.526-3.766c0-1.492,0.509-2.794,1.526-3.907
		c1.018-1.112,2.218-1.669,3.603-1.669c1.547,0,2.814,0.522,3.807,1.567C358.752,54.934,359.247,56.148,359.247,57.532z"/>
	<path d="M407.322,113.261c-1.275,0.462-2.395,0.834-3.357,1.119c-0.965,0.285-2.057,0.428-3.277,0.428
		c-2.117,0-3.807-0.496-5.068-1.486s-2.07-2.436-2.422-4.335h-0.244c-1.765,1.954-3.658,3.446-5.68,4.478s-4.457,1.547-7.307,1.547
		c-3.012,0-5.488-0.923-7.43-2.768c-1.939-1.846-2.91-4.261-2.91-7.246c0-1.547,0.217-2.932,0.651-4.152
		c0.435-1.222,1.085-2.32,1.954-3.298c0.678-0.813,1.574-1.539,2.688-2.178c1.111-0.637,2.156-1.146,3.134-1.526
		c1.222-0.461,3.697-1.316,7.429-2.564s6.249-2.225,7.552-2.931v-4.03c0-0.353-0.075-1.031-0.224-2.035
		c-0.15-1.004-0.469-1.954-0.957-2.85c-0.543-1.004-1.31-1.879-2.3-2.626c-0.991-0.746-2.396-1.119-4.214-1.119
		c-1.248,0-2.408,0.21-3.48,0.631s-1.825,0.861-2.259,1.323c0,0.543,0.128,1.343,0.387,2.401c0.258,1.059,0.387,2.035,0.387,2.931
		c0,0.95-0.427,1.818-1.282,2.605s-2.043,1.181-3.562,1.181c-1.357,0-2.354-0.481-2.992-1.445c-0.637-0.963-0.956-2.042-0.956-3.236
		c0-1.248,0.44-2.442,1.323-3.582c0.881-1.14,2.028-2.157,3.439-3.053c1.222-0.76,2.7-1.405,4.438-1.934
		c1.736-0.529,3.433-0.794,5.088-0.794c2.28,0,4.268,0.156,5.965,0.468c1.695,0.312,3.235,0.984,4.619,2.015
		c1.385,1.005,2.436,2.368,3.155,4.092c0.719,1.724,1.079,3.942,1.079,6.655c0,3.882-0.041,7.321-0.123,10.319
		c-0.08,2.999-0.121,6.276-0.121,9.831c0,1.059,0.183,1.9,0.549,2.524c0.367,0.624,0.93,1.153,1.689,1.587
		c0.407,0.244,1.052,0.381,1.934,0.407c0.882,0.027,1.784,0.041,2.707,0.041V113.261z M393.115,91.767
		c-2.307,0.68-4.328,1.347-6.064,1.999c-1.738,0.653-3.353,1.469-4.845,2.448c-1.357,0.925-2.429,2.02-3.216,3.284
		s-1.181,2.768-1.181,4.508c0,2.257,0.591,3.916,1.771,4.978c1.181,1.061,2.68,1.59,4.498,1.59c1.927,0,3.623-0.469,5.089-1.407
		s2.7-2.046,3.704-3.324L393.115,91.767z M396.372,54.56c0,1.032-0.237,1.873-0.712,2.524c-0.476,0.651-1.174,1.343-2.097,2.076
		c-1.357,1.086-3.128,2.47-5.312,4.152s-4.539,3.515-7.063,5.495l-1.547-1.303c2.443-3.609,4.146-6.153,5.109-7.633
		c0.963-1.479,2.001-3.114,3.114-4.905c0.841-1.384,1.655-2.326,2.442-2.829c0.787-0.502,1.695-0.753,2.728-0.753
		c0.978,0,1.777,0.333,2.401,0.997C396.061,53.047,396.372,53.774,396.372,54.56z"/>
	<path d="M442.047,79.026c0,1.384-0.34,2.612-1.018,3.684c-0.68,1.072-1.725,1.608-3.135,1.608c-1.521,0-2.681-0.394-3.48-1.181
		c-0.801-0.787-1.201-1.655-1.201-2.605c0-0.597,0.047-1.14,0.143-1.628c0.095-0.488,0.184-0.978,0.265-1.466
		c-1.276,0-2.769,0.516-4.478,1.547c-1.71,1.032-3.162,2.497-4.355,4.396v23.366c0,0.95,0.183,1.724,0.549,2.32
		c0.367,0.598,0.943,1.045,1.73,1.344c0.678,0.271,1.553,0.475,2.625,0.61s2.002,0.23,2.789,0.285v2.687h-21.168v-2.687
		c0.623-0.055,1.268-0.108,1.934-0.163c0.664-0.054,1.241-0.162,1.73-0.325c0.759-0.243,1.322-0.67,1.689-1.28
		c0.365-0.609,0.549-1.403,0.549-2.379V82.398c0-0.84-0.197-1.667-0.59-2.479c-0.395-0.813-0.943-1.464-1.648-1.952
		c-0.517-0.325-1.127-0.562-1.832-0.711c-0.707-0.149-1.466-0.251-2.279-0.306v-2.687l13.352-0.896l0.57,0.569v5.658h0.203
		c1.682-2.198,3.555-3.867,5.617-5.007s3.949-1.71,5.658-1.71c1.711,0,3.101,0.557,4.173,1.67
		C441.51,75.661,442.047,77.153,442.047,79.026z"/>
	<path d="M464.924,113.994h-19.377v-2.687c0.624-0.055,1.269-0.108,1.934-0.163c0.665-0.054,1.242-0.162,1.73-0.325
		c0.76-0.243,1.322-0.67,1.689-1.28c0.366-0.609,0.549-1.403,0.549-2.379V82.398c0-0.867-0.197-1.66-0.59-2.379
		c-0.394-0.718-0.943-1.321-1.648-1.809c-0.516-0.325-1.262-0.604-2.239-0.833c-0.978-0.23-1.872-0.373-2.687-0.428v-2.687
		l14.166-0.896l0.57,0.569v32.729c0,0.95,0.182,1.737,0.545,2.36c0.364,0.625,0.938,1.086,1.719,1.385
		c0.593,0.244,1.172,0.441,1.738,0.59c0.566,0.149,1.199,0.251,1.9,0.306V113.994z M459.836,57.532c0,1.547-0.51,2.897-1.527,4.051
		s-2.273,1.73-3.766,1.73c-1.384,0-2.584-0.55-3.602-1.649c-1.018-1.099-1.527-2.354-1.527-3.766c0-1.492,0.51-2.794,1.527-3.907
		c1.018-1.112,2.218-1.669,3.602-1.669c1.547,0,2.815,0.522,3.807,1.567C459.34,54.934,459.836,56.148,459.836,57.532z"/>
	<path d="M509.051,93.518c0,2.822-0.447,5.597-1.344,8.324c-0.897,2.728-2.174,5.042-3.83,6.94
		c-1.876,2.172-4.049,3.786-6.521,4.845c-2.472,1.059-5.243,1.588-8.312,1.588c-2.555,0-4.986-0.482-7.295-1.445
		s-4.359-2.367-6.152-4.214c-1.766-1.817-3.172-4.036-4.219-6.655c-1.045-2.619-1.568-5.557-1.568-8.813
		c0-6.269,1.827-11.398,5.481-15.388c3.653-3.989,8.441-5.983,14.364-5.983c5.623,0,10.262,1.893,13.916,5.679
		C507.224,82.18,509.051,87.222,509.051,93.518z M500.625,93.599c0-2.035-0.205-4.186-0.612-6.452
		c-0.407-2.266-1.02-4.186-1.835-5.76c-0.87-1.683-2.012-3.033-3.426-4.051s-3.141-1.526-5.18-1.526
		c-2.094,0-3.881,0.516-5.362,1.547s-2.685,2.442-3.608,4.233c-0.871,1.655-1.482,3.542-1.836,5.658
		c-0.354,2.117-0.53,4.166-0.53,6.147c0,2.604,0.21,5.014,0.632,7.226s1.095,4.187,2.02,5.923c0.924,1.736,2.086,3.101,3.486,4.091
		c1.4,0.991,3.134,1.486,5.199,1.486c3.398,0,6.091-1.643,8.075-4.926S500.625,99.379,500.625,93.599z"/>
	<path d="M578.906,113.261l-14.043,0.896l-0.612-0.57v-3.745l-0.325-0.081c-1.41,1.574-3.15,2.863-5.225,3.867
		c-2.072,1.004-4.207,1.506-6.402,1.506c-2.275,0-4.479-0.509-6.605-1.526c-2.128-1.018-3.978-2.449-5.549-4.295
		c-1.599-1.872-2.865-4.125-3.801-6.757c-0.936-2.633-1.402-5.537-1.402-8.712c0-2.903,0.501-5.658,1.504-8.264
		c1.002-2.605,2.385-4.885,4.146-6.839c1.652-1.817,3.679-3.27,6.077-4.355c2.397-1.085,4.845-1.629,7.337-1.629
		c1.871,0,3.706,0.238,5.509,0.713c1.802,0.475,3.354,1.079,4.655,1.812V61.29c0-1.142-0.191-2.182-0.57-3.12
		c-0.381-0.938-0.91-1.651-1.588-2.142c-0.76-0.517-1.785-0.89-3.073-1.121c-1.29-0.231-2.681-0.401-4.173-0.51v-2.524l16.445-0.896
		l0.611,0.61v54.104c0,0.949,0.184,1.757,0.55,2.421s0.901,1.228,1.608,1.688c0.515,0.326,1.262,0.528,2.238,0.61
		c0.977,0.081,1.873,0.136,2.688,0.162V113.261z M564.17,106.218V82.73c-0.217-0.705-0.57-1.465-1.057-2.279
		c-0.488-0.814-1.098-1.561-1.828-2.239c-0.785-0.678-1.707-1.241-2.764-1.689c-1.057-0.447-2.288-0.672-3.696-0.672
		c-1.626,0-3.122,0.422-4.49,1.263c-1.367,0.841-2.579,2.049-3.636,3.623c-1.002,1.52-1.794,3.453-2.377,5.801
		c-0.582,2.348-0.873,4.945-0.873,7.795c0,2.28,0.217,4.35,0.65,6.208c0.433,1.859,1.164,3.59,2.193,5.19
		c0.947,1.521,2.16,2.741,3.637,3.664c1.475,0.923,3.229,1.384,5.262,1.384c2.166,0,3.96-0.475,5.383-1.425
		C561.996,108.404,563.194,107.358,564.17,106.218z"/>
	<path d="M618.474,104.549c-1.683,3.203-3.935,5.754-6.757,7.653c-2.823,1.899-6.066,2.85-9.729,2.85c-3.229,0-6.06-0.57-8.487-1.71
		c-2.43-1.14-4.432-2.687-6.005-4.641c-1.574-1.954-2.747-4.233-3.521-6.839s-1.16-5.359-1.16-8.264c0-2.605,0.412-5.163,1.24-7.674
		c0.828-2.51,2.043-4.769,3.645-6.777c1.547-1.927,3.466-3.48,5.76-4.661c2.293-1.181,4.864-1.771,7.714-1.771
		c2.931,0,5.44,0.462,7.531,1.384c2.089,0.923,3.786,2.185,5.089,3.786c1.247,1.52,2.178,3.311,2.788,5.373s0.915,4.302,0.915,6.717
		v2.687h-26.582c0,2.639,0.251,5.032,0.754,7.182c0.502,2.148,1.295,4.039,2.381,5.671c1.059,1.577,2.443,2.822,4.152,3.732
		c1.71,0.912,3.745,1.367,6.106,1.367c2.415,0,4.498-0.566,6.249-1.698c1.75-1.132,3.439-3.171,5.067-6.117L618.474,104.549z
		 M609.478,89.244c0-1.516-0.13-3.139-0.387-4.87c-0.259-1.731-0.672-3.179-1.241-4.343c-0.625-1.244-1.48-2.259-2.564-3.044
		c-1.086-0.784-2.484-1.177-4.193-1.177c-2.85,0-5.218,1.184-7.104,3.551c-1.887,2.367-2.91,5.662-3.074,9.883H609.478z"/>
</g>
<g enable-background="new    ">
	<path d="M349.26,180.482c2.611,1.77,4.781,4.087,6.509,6.951c1.727,2.865,2.591,6.34,2.591,10.426
		c0,4.171-0.906,7.794-2.717,10.868c-1.812,3.076-4.171,5.604-7.078,7.583c-2.822,1.938-6.014,3.412-9.572,4.423
		c-3.561,1.011-7.235,1.517-11.026,1.517h-42.462v-4.486c1.011-0.084,2.485-0.263,4.423-0.537c1.937-0.273,3.327-0.601,4.17-0.979
		c1.305-0.59,2.232-1.379,2.78-2.369c0.547-0.989,0.821-2.265,0.821-3.823v-64.452c0-1.432-0.243-2.695-0.727-3.791
		c-0.485-1.095-1.444-1.979-2.875-2.654c-1.264-0.632-2.676-1.115-4.234-1.453c-1.559-0.337-2.865-0.547-3.917-0.632v-4.486h41.388
		c3.201,0,6.266,0.316,9.193,0.948s5.719,1.748,8.373,3.349c2.484,1.476,4.527,3.476,6.129,6.003
		c1.601,2.527,2.401,5.603,2.401,9.226c0,3.159-0.569,5.971-1.706,8.436c-1.138,2.464-2.738,4.581-4.803,6.351
		c-1.938,1.686-4.16,3.106-6.666,4.265c-2.507,1.159-5.213,2.054-8.119,2.686v0.569c2.568,0.295,5.443,0.938,8.625,1.927
		C343.941,177.333,346.773,178.713,349.26,180.482z M333.979,166.95c1.555-1.814,2.637-3.798,3.246-5.95s0.914-4.705,0.914-7.659
		c0-4.938-1.346-8.811-4.035-11.616s-6.934-4.21-12.733-4.21c-1.345,0-3.037,0.031-5.075,0.095
		c-2.039,0.063-3.752,0.116-5.138,0.158v34.501h8.006c3.445,0,6.398-0.442,8.857-1.329
		C330.479,170.052,332.465,168.723,333.979,166.95z M342.752,195.584c0-5.309-1.78-9.668-5.34-13.08
		c-3.561-3.412-8.646-5.118-15.26-5.118c-2.696,0-4.971,0.031-6.824,0.095c-1.854,0.062-3.244,0.116-4.17,0.158v31.594
		c0,2.653,1.074,4.655,3.223,6.003c2.148,1.349,5.139,2.021,8.973,2.021c6.276,0,11.079-1.832,14.407-5.497
		C341.087,208.095,342.752,202.703,342.752,195.584z"/>
	<path d="M429.445,190.466c0,4.381-0.695,8.688-2.086,12.922c-1.393,4.233-3.375,7.825-5.946,10.773
		c-2.911,3.37-6.284,5.876-10.121,7.52c-3.837,1.643-8.14,2.464-12.904,2.464c-3.964,0-7.738-0.748-11.322-2.243
		s-6.769-3.675-9.552-6.54c-2.74-2.821-4.924-6.266-6.547-10.331c-1.623-4.064-2.434-8.625-2.434-13.681
		c0-9.73,2.835-17.692,8.507-23.885c5.671-6.192,13.104-9.288,22.297-9.288c8.729,0,15.929,2.938,21.601,8.814
		C426.609,172.868,429.445,180.694,429.445,190.466z M416.365,190.592c0-3.159-0.316-6.497-0.949-10.016
		c-0.633-3.517-1.582-6.497-2.848-8.94c-1.352-2.612-3.125-4.708-5.318-6.287c-2.195-1.58-4.875-2.37-8.039-2.37
		c-3.251,0-6.025,0.801-8.324,2.401c-2.301,1.602-4.168,3.791-5.603,6.571c-1.351,2.57-2.3,5.497-2.849,8.783
		c-0.55,3.286-0.823,6.467-0.823,9.541c0,4.045,0.327,7.783,0.981,11.217s1.698,6.498,3.134,9.193
		c1.435,2.696,3.238,4.813,5.413,6.351c2.172,1.538,4.863,2.307,8.07,2.307c5.274,0,9.453-2.549,12.533-7.646
		C414.824,206.601,416.365,199.565,416.365,190.592z"/>
	<path d="M486.125,167.971c0,2.148-0.526,4.055-1.579,5.719c-1.054,1.664-2.676,2.495-4.865,2.495c-2.36,0-4.161-0.609-5.403-1.832
		c-1.242-1.222-1.863-2.569-1.863-4.044c0-0.927,0.072-1.77,0.221-2.527c0.147-0.759,0.285-1.517,0.411-2.275
		c-1.98,0-4.297,0.801-6.95,2.401c-2.654,1.602-4.908,3.876-6.762,6.824v36.271c0,1.475,0.284,2.675,0.854,3.602
		c0.568,0.927,1.463,1.622,2.686,2.085c1.052,0.422,2.41,0.737,4.075,0.948c1.663,0.211,3.106,0.358,4.328,0.441v4.171h-32.858
		v-4.171c0.969-0.083,1.969-0.167,3.002-0.252c1.031-0.084,1.928-0.252,2.686-0.505c1.18-0.378,2.054-1.041,2.623-1.987
		c0.568-0.947,0.853-2.178,0.853-3.692v-38.437c0-1.304-0.306-2.588-0.917-3.85c-0.61-1.262-1.463-2.271-2.559-3.03
		c-0.801-0.504-1.748-0.872-2.844-1.104c-1.096-0.23-2.274-0.389-3.538-0.474v-4.171l20.726-1.39l0.885,0.885v8.783h0.316
		c2.611-3.412,5.518-6.003,8.719-7.772s6.13-2.654,8.783-2.654c2.654,0,4.812,0.864,6.478,2.591
		C485.293,162.748,486.125,165.064,486.125,167.971z"/>
	<path d="M559.676,221.112l-21.797,1.391l-0.95-0.885v-5.813l-0.505-0.126c-2.188,2.443-4.891,4.444-8.108,6.003
		c-3.219,1.558-6.531,2.338-9.938,2.338c-3.533,0-6.951-0.79-10.254-2.37c-3.303-1.579-6.174-3.801-8.612-6.666
		c-2.482-2.906-4.449-6.402-5.9-10.489c-1.451-4.086-2.177-8.594-2.177-13.522c0-4.507,0.777-8.783,2.334-12.827
		c1.556-4.044,3.702-7.582,6.438-10.615c2.564-2.822,5.709-5.076,9.432-6.762c3.723-1.684,7.52-2.527,11.391-2.527
		c2.902,0,5.752,0.369,8.55,1.106s5.205,1.674,7.226,2.812v-21.716c0-1.772-0.295-3.387-0.885-4.843
		c-0.591-1.456-1.412-2.564-2.465-3.324c-1.18-0.802-2.77-1.382-4.771-1.741s-4.161-0.623-6.477-0.792v-3.917l25.526-1.391
		l0.949,0.947v83.982c0,1.475,0.285,2.728,0.854,3.758c0.568,1.032,1.399,1.905,2.496,2.62c0.799,0.506,1.959,0.821,3.475,0.947
		c1.517,0.126,2.906,0.211,4.17,0.253V221.112z M536.803,210.18v-36.459c-0.337-1.095-0.884-2.274-1.641-3.539
		c-0.756-1.264-1.701-2.422-2.838-3.475c-1.219-1.053-2.648-1.928-4.288-2.623c-1.64-0.694-3.552-1.042-5.738-1.042
		c-2.523,0-4.847,0.653-6.97,1.959s-4.004,3.181-5.644,5.623c-1.556,2.36-2.785,5.361-3.689,9.005s-1.355,7.677-1.355,12.101
		c0,3.538,0.335,6.751,1.009,9.636c0.672,2.886,1.809,5.571,3.405,8.057c1.472,2.359,3.353,4.255,5.645,5.687
		c2.29,1.433,5.014,2.148,8.167,2.148c3.363,0,6.148-0.736,8.355-2.211C533.429,213.572,535.289,211.95,536.803,210.18z"/>
	<path d="M626.529,190.466c0,4.381-0.695,8.688-2.087,12.922c-1.392,4.233-3.374,7.825-5.946,10.773
		c-2.91,3.37-6.283,5.876-10.121,7.52c-3.837,1.643-8.139,2.464-12.904,2.464c-3.963,0-7.738-0.748-11.322-2.243
		s-6.768-3.675-9.551-6.54c-2.74-2.821-4.924-6.266-6.547-10.331c-1.623-4.064-2.435-8.625-2.435-13.681
		c0-9.73,2.835-17.692,8.507-23.885s13.104-9.288,22.297-9.288c8.729,0,15.93,2.938,21.602,8.814
		C623.693,172.868,626.529,180.694,626.529,190.466z M613.449,190.592c0-3.159-0.316-6.497-0.949-10.016
		c-0.633-3.517-1.583-6.497-2.849-8.94c-1.351-2.612-3.124-4.708-5.317-6.287c-2.195-1.58-4.875-2.37-8.04-2.37
		c-3.251,0-6.024,0.801-8.324,2.401c-2.3,1.602-4.167,3.791-5.603,6.571c-1.35,2.57-2.3,5.497-2.849,8.783
		c-0.55,3.286-0.823,6.467-0.823,9.541c0,4.045,0.328,7.783,0.982,11.217c0.653,3.434,1.697,6.498,3.133,9.193
		c1.436,2.696,3.238,4.813,5.413,6.351c2.173,1.538,4.863,2.307,8.07,2.307c5.274,0,9.454-2.549,12.534-7.646
		C611.908,206.601,613.449,199.565,613.449,190.592z"/>
</g>
</svg>
