<?xml version="1.0" encoding="utf-8"?>
<!-- Generator: Adobe Illustrator 17.0.0, SVG Export Plug-In . SVG Version: 6.00 Build 0)  -->
<!DOCTYPE svg PUBLIC "-//W3C//DTD SVG 1.1//EN" "http://www.w3.org/Graphics/SVG/1.1/DTD/svg11.dtd">
<svg version="1.1" id="Camada_1" xmlns="http://www.w3.org/2000/svg" xmlns:xlink="http://www.w3.org/1999/xlink" x="0px" y="0px"
	 width="300px" height="300px" viewBox="0 0 300 300" enable-background="new 0 0 300 300" xml:space="preserve">
<g>
	<g id="Shape_886">
		<g>
			
				<linearGradient id="SVGID_1_" gradientUnits="userSpaceOnUse" x1="-107.5" y1="-543.9998" x2="-107.5" y2="-836.0262" gradientTransform="matrix(1 0 0 -1 257.5 -540.013)">
				<stop  offset="0" style="stop-color:#50C9F5"/>
				<stop  offset="1" style="stop-color:#3C6FB6"/>
			</linearGradient>
			<path fill="url(#SVGID_1_)" d="M150,3.987C69.135,3.987,3.587,69.361,3.587,150.005c0,80.634,65.55,146.008,146.413,146.008
				s146.413-65.374,146.413-146.008C296.413,69.361,230.858,3.987,150,3.987z M37.749,154.866h-9.761
				c-2.694,0-4.88-2.182-4.88-4.861c0-2.689,2.187-4.871,4.88-4.871h9.761c2.694,0,4.88,2.182,4.88,4.871
				C42.631,152.684,40.444,154.866,37.749,154.866z M145.119,28.316c0-2.679,2.187-4.861,4.88-4.861c2.694,0,4.88,2.182,4.88,4.861
				v9.741c0,2.689-2.186,4.871-4.88,4.871c-2.694,0-4.88-2.182-4.88-4.871V28.316z M154.88,271.674c0,2.689-2.186,4.871-4.88,4.871
				c-2.694,0-4.88-2.182-4.88-4.871v-9.741c0-2.689,2.187-4.861,4.88-4.861c2.694,0,4.88,2.172,4.88,4.861V271.674z
				 M170.532,170.478L70.454,228.98l58.667-99.8l100.078-58.512L170.532,170.478z M272.011,154.866h-9.761
				c-2.694,0-4.88-2.182-4.88-4.861c0-2.689,2.186-4.871,4.88-4.871h9.761c2.694,0,4.88,2.182,4.88,4.871
				C276.892,152.684,274.705,154.866,272.011,154.866z M159.258,166.12l-25.768-25.69l-35.432,61.019L159.258,166.12z"/>
		</g>
	</g>
</g>
</svg>
