<?xml version="1.0" encoding="utf-8"?>
<!-- Generator: Adobe Illustrator 17.0.0, SVG Export Plug-In . SVG Version: 6.00 Build 0)  -->
<!DOCTYPE svg PUBLIC "-//W3C//DTD SVG 1.1//EN" "http://www.w3.org/Graphics/SVG/1.1/DTD/svg11.dtd">
<svg version="1.1" id="Camada_1" xmlns="http://www.w3.org/2000/svg" xmlns:xlink="http://www.w3.org/1999/xlink" x="0px" y="0px"
	 width="300px" height="300px" viewBox="0 0 300 300" enable-background="new 0 0 300 300" xml:space="preserve">
<circle fill="none" stroke="#222222" stroke-width="10" stroke-miterlimit="10" cx="152.5" cy="150.167" r="130.833"/>
<g>
	<path fill="#222222" d="M159.58,37.76c-0.232,0.008-0.59,0.075-1.072,0.199c-0.481,0.125-0.826,0.254-1.034,0.387
		c-0.299,0.208-0.501,0.606-0.604,1.197c-0.104,0.59-0.156,1.338-0.156,2.244v12.952h-1.084l-10.721-14.473v9.125
		c0,1.022,0.064,1.808,0.193,2.356c0.128,0.548,0.326,0.939,0.592,1.172c0.191,0.183,0.586,0.354,1.184,0.511
		c0.599,0.158,0.993,0.241,1.185,0.249v0.885h-7.255v-0.885c0.225-0.017,0.603-0.098,1.135-0.243s0.864-0.276,0.997-0.393
		c0.291-0.232,0.49-0.588,0.599-1.066c0.108-0.478,0.162-1.294,0.162-2.449v-8.714c0-0.382-0.067-0.765-0.2-1.147
		s-0.312-0.677-0.536-0.885c-0.299-0.274-0.704-0.509-1.215-0.704s-0.925-0.301-1.24-0.318v-0.885h5.054l9.943,13.486v-8.413
		c0-1.03-0.066-1.822-0.199-2.374c-0.133-0.553-0.324-0.92-0.573-1.103c-0.233-0.158-0.613-0.312-1.141-0.461
		s-0.929-0.232-1.203-0.249v-0.885h7.192v0.884H159.58z"/>
</g>
<g>
	<path fill="#222222" d="M53.342,140.572c0.781,0.814,1.392,1.797,1.833,2.948c0.44,1.151,0.66,2.425,0.66,3.821
		c0,1.405-0.225,2.68-0.673,3.827c-0.449,1.146-1.072,2.123-1.87,2.93c-0.772,0.798-1.671,1.413-2.692,1.845
		c-1.022,0.432-2.111,0.648-3.267,0.648c-1.229,0-2.366-0.23-3.409-0.692c-1.043-0.461-1.938-1.103-2.687-1.926
		c-0.748-0.806-1.336-1.784-1.764-2.936c-0.428-1.151-0.642-2.383-0.642-3.696c0-1.438,0.225-2.719,0.673-3.846
		c0.449-1.126,1.068-2.101,1.857-2.923c0.781-0.814,1.689-1.438,2.724-1.87c1.034-0.432,2.117-0.648,3.247-0.648
		c1.172,0,2.277,0.22,3.316,0.661C51.688,139.155,52.586,139.774,53.342,140.572z M51.485,153.112
		c0.466-0.756,0.804-1.612,1.016-2.567c0.212-0.956,0.318-2.024,0.318-3.204c0-1.213-0.118-2.327-0.355-3.341
		c-0.236-1.014-0.584-1.878-1.041-2.593c-0.457-0.707-1.03-1.257-1.72-1.652c-0.69-0.395-1.479-0.592-2.369-0.592
		c-0.997,0-1.845,0.229-2.543,0.686c-0.698,0.458-1.268,1.068-1.708,1.833c-0.416,0.731-0.725,1.588-0.929,2.568
		s-0.305,2.011-0.305,3.091c0,1.197,0.108,2.277,0.324,3.241s0.557,1.82,1.022,2.568c0.448,0.731,1.014,1.303,1.695,1.714
		s1.496,0.617,2.443,0.617c0.89,0,1.691-0.208,2.406-0.624C50.455,154.442,51.036,153.86,51.485,153.112z"/>
</g>
<g>
	<path fill="#222222" d="M261.605,150.906l-0.374,5.261h-13.825v-0.886c0.199-0.017,0.488-0.045,0.866-0.087
		c0.379-0.041,0.643-0.096,0.792-0.162c0.249-0.107,0.43-0.266,0.542-0.474s0.168-0.474,0.168-0.798v-12.665
		c0-0.283-0.047-0.532-0.143-0.748c-0.096-0.216-0.285-0.391-0.567-0.524c-0.191-0.1-0.459-0.197-0.804-0.293
		c-0.346-0.095-0.63-0.151-0.854-0.168v-0.885h7.467v0.885c-0.232,0.008-0.534,0.05-0.903,0.125c-0.37,0.075-0.638,0.142-0.804,0.2
		c-0.283,0.1-0.477,0.27-0.58,0.511c-0.104,0.241-0.156,0.499-0.156,0.773v11.88c0,0.549,0.027,0.975,0.081,1.278
		c0.055,0.303,0.181,0.538,0.381,0.704c0.19,0.149,0.476,0.247,0.854,0.293s0.908,0.068,1.59,0.068c0.307,0,0.627-0.008,0.96-0.024
		c0.332-0.017,0.647-0.051,0.947-0.101c0.291-0.05,0.559-0.118,0.804-0.205c0.245-0.088,0.426-0.197,0.542-0.331
		c0.341-0.382,0.738-0.961,1.191-1.738c0.452-0.777,0.767-1.407,0.94-1.889L261.605,150.906L261.605,150.906z"/>
</g>
<g>
	<path fill="#222222" d="M155.067,256.94c0.375,0.416,0.65,0.871,0.83,1.365c0.178,0.494,0.268,1.07,0.268,1.727
		c0,1.562-0.578,2.851-1.732,3.864c-1.156,1.014-2.59,1.521-4.301,1.521c-0.791,0-1.58-0.122-2.369-0.367s-1.471-0.542-2.044-0.892
		l-0.536,0.91h-0.998l-0.174-6.059h1.01c0.208,0.748,0.451,1.424,0.729,2.025c0.279,0.604,0.646,1.166,1.104,1.689
		c0.432,0.49,0.938,0.881,1.514,1.172c0.578,0.291,1.25,0.437,2.014,0.437c0.574,0,1.074-0.075,1.502-0.225s0.775-0.362,1.041-0.637
		s0.463-0.597,0.592-0.968c0.129-0.37,0.193-0.797,0.193-1.279c0-0.707-0.199-1.367-0.598-1.979s-0.992-1.075-1.783-1.392
		c-0.539-0.216-1.158-0.453-1.857-0.714c-0.697-0.261-1.301-0.507-1.807-0.739c-0.998-0.448-1.773-1.036-2.325-1.763
		c-0.553-0.728-0.829-1.677-0.829-2.848c0-0.674,0.137-1.301,0.412-1.882c0.274-0.582,0.665-1.102,1.172-1.559
		c0.48-0.432,1.051-0.771,1.707-1.016s1.342-0.367,2.057-0.367c0.814,0,1.545,0.124,2.188,0.374c0.645,0.249,1.232,0.54,1.764,0.872
		l0.512-0.848h0.998l0.1,5.872h-1.01c-0.184-0.674-0.389-1.317-0.617-1.933s-0.525-1.172-0.891-1.67
		c-0.357-0.482-0.795-0.867-1.311-1.153c-0.516-0.287-1.146-0.431-1.895-0.431c-0.789,0-1.463,0.254-2.02,0.761
		s-0.834,1.126-0.834,1.857c0,0.765,0.178,1.398,0.535,1.901s0.877,0.916,1.559,1.24c0.605,0.291,1.203,0.542,1.789,0.754
		s1.152,0.438,1.701,0.68c0.498,0.216,0.979,0.461,1.439,0.735S154.728,256.575,155.067,256.94z"/>
</g>
<path fill="#222222" d="M163.019,137.79l-5.092,5.092c1.697,1.889,2.739,4.379,2.739,7.118c0,5.89-4.775,10.666-10.666,10.666
	c-2.739,0-5.229-1.042-7.118-2.739l-5.325,5.325l93.321,67.86L163.019,137.79z"/>
<path fill="#35A1FC" d="M139.335,150c0-5.891,4.775-10.666,10.666-10.666c2.739,0,5.229,1.041,7.118,2.739l5.324-5.324
	l-93.321-67.86l67.86,93.321l5.092-5.092C140.376,155.229,139.335,152.739,139.335,150z"/>
<path fill="none" stroke="#222222" stroke-width="5" stroke-miterlimit="10" d="M197.495,213.529
	c-13.127,9.752-29.386,15.527-46.995,15.527c-43.569,0-78.889-35.32-78.889-78.889c0-17.61,5.774-33.868,15.527-46.995"/>
<path fill="none" stroke="#222222" stroke-width="5" stroke-miterlimit="10" d="M103.651,86.658
	c13.127-9.752,29.386-15.527,46.995-15.527c43.569,0,78.889,35.32,78.889,78.889c0,17.61-5.774,33.868-15.527,46.995"/>
</svg>
